<?xml version="1.0" standalone="no"?>
<!DOCTYPE svg PUBLIC "-//W3C//DTD SVG 20010904//EN"
 "http://www.w3.org/TR/2001/REC-SVG-20010904/DTD/svg10.dtd">
<svg version="1.0" xmlns="http://www.w3.org/2000/svg"
 width="500.000000pt" height="350.000000pt" viewBox="0 0 500.000000 350.000000"
 preserveAspectRatio="xMidYMid meet">
<metadata>
Created by potrace 1.13, written by Peter Selinger 2001-2015
</metadata>
<g transform="translate(0.000000,350.000000) scale(0.100000,-0.100000)"
fill="#000000" stroke="none">
<path d="M440 3439 c-140 -24 -268 -81 -314 -141 -13 -18 -31 -53 -39 -77 -13
-37 -13 -49 -2 -81 22 -63 42 -86 104 -119 72 -38 145 -55 347 -81 253 -32
304 -47 327 -97 11 -24 8 -28 -26 -58 -52 -45 -113 -60 -232 -59 -211 3 -364
72 -390 177 -7 25 -10 27 -64 27 l-56 0 2 -142 1 -143 59 0 c51 0 58 2 58 20
0 24 25 25 105 1 105 -31 243 -56 312 -56 162 0 345 66 400 145 75 107 34 246
-91 309 -83 42 -224 71 -441 91 -144 13 -200 36 -200 81 0 68 165 108 344 85
152 -21 234 -61 266 -134 17 -37 20 -39 64 -41 l46 -2 0 128 0 128 -50 0 c-43
0 -50 -3 -50 -20 0 -26 -14 -25 -87 5 -71 28 -244 66 -300 64 -21 -1 -63 -5
-93 -10z"/>
<path d="M1685 3435 c-276 -44 -465 -210 -465 -407 0 -103 29 -169 109 -249
119 -119 266 -173 466 -173 201 0 347 54 464 171 88 89 115 153 109 263 -12
205 -204 361 -491 400 -92 12 -88 12 -192 -5z m237 -143 c149 -54 240 -193
208 -321 -25 -99 -77 -157 -188 -209 -48 -23 -71 -27 -147 -27 -80 0 -97 4
-156 31 -120 57 -183 145 -182 259 0 118 83 223 213 268 61 21 192 20 252 -1z"/>
<path d="M2479 3376 c-2 -3 -3 -25 -1 -50 l4 -46 64 0 64 0 -2 -272 -3 -273
-62 -3 -63 -3 0 -44 0 -45 220 0 220 0 0 45 0 44 -72 3 -73 3 -3 208 c-1 114
0 207 3 207 4 0 258 -223 562 -493 17 -15 37 -19 100 -19 l78 0 3 308 c1 183
6 312 12 318 5 5 38 10 72 10 l63 1 0 50 0 50 -220 0 -220 0 0 -50 0 -50 64
-1 c91 -1 92 -4 90 -191 0 -84 -4 -155 -7 -157 -4 -2 -101 82 -217 186 -115
105 -232 208 -258 229 l-49 39 -182 0 c-101 0 -185 -2 -187 -4z"/>
<path d="M3762 3328 l3 -53 64 0 64 -1 169 -184 169 -184 -3 -85 -3 -86 -69
-5 -69 -5 0 -40 0 -40 258 0 258 0 1 40 1 40 -70 3 c-40 2 -73 8 -77 15 -4 7
-8 44 -8 84 l0 72 102 108 c256 272 256 272 293 266 19 -3 46 -2 60 1 24 6 26
10 23 54 l-3 47 -210 0 -210 0 0 -50 c0 -48 1 -50 29 -52 62 -5 60 -10 -35
-115 -52 -57 -99 -104 -105 -106 -12 -3 -194 193 -194 209 0 8 37 14 67 10 10
-1 24 95 14 105 -2 2 -121 4 -263 4 l-259 0 3 -52z"/>
<path d="M90 1735 l0 -715 2425 0 2425 0 0 715 0 715 -2425 0 -2425 0 0 -715z
m790 275 c103 -58 122 -174 40 -250 l-29 -27 36 -24 c54 -36 76 -71 81 -133 6
-75 -22 -133 -81 -167 -40 -23 -50 -24 -259 -27 l-218 -3 0 331 0 332 193 -4
c183 -3 194 -4 237 -28z m787 3 c22 -13 51 -34 62 -49 75 -95 27 -256 -85
-286 -24 -7 -44 -16 -44 -20 0 -4 43 -66 95 -136 52 -71 95 -132 95 -136 0 -4
-26 -6 -57 -4 l-57 3 -117 160 c-65 88 -116 164 -115 169 1 5 31 11 66 13 77
6 114 23 135 63 29 56 8 142 -42 169 -10 5 -73 11 -138 12 l-120 3 -3 -297 -2
-297 -55 0 -55 0 0 331 0 331 198 -4 c180 -3 201 -5 239 -25z m830 -301 c84
-178 153 -325 153 -327 0 -3 -26 -5 -59 -5 l-58 0 -41 90 -42 90 -170 0 c-194
0 -174 10 -226 -112 l-28 -68 -53 0 c-29 0 -53 2 -53 4 0 2 38 83 85 181 47
97 85 178 85 179 0 2 32 69 70 150 l70 147 57 -3 56 -3 154 -323z m317 256
c19 -40 59 -127 90 -193 31 -66 73 -157 94 -202 20 -45 41 -81 45 -80 4 1 37
70 74 152 36 83 89 204 118 270 l52 120 52 3 52 3 -14 -28 c-8 -15 -65 -138
-127 -272 -61 -135 -125 -271 -141 -303 l-29 -58 -54 0 -53 0 -123 258 c-67
141 -137 290 -156 330 l-33 72 60 0 60 0 33 -72z m874 -260 l-3 -333 -52 -3
-53 -3 0 335 0 336 55 0 55 0 -2 -332z m621 255 c21 -43 87 -181 146 -308 59
-126 112 -234 116 -239 23 -25 8 -36 -49 -36 l-58 0 -41 90 -41 90 -170 0
c-195 0 -175 10 -227 -112 l-28 -68 -49 0 c-26 0 -48 5 -48 10 0 9 201 441
276 593 l28 57 53 0 53 0 39 -77z"/>
<path d="M567 1974 c-4 -4 -7 -54 -7 -111 l0 -105 126 4 126 3 29 33 c41 45
41 102 0 143 -29 28 -32 29 -134 29 -58 0 -112 2 -119 5 -8 3 -17 2 -21 -1z"/>
<path d="M562 1568 l3 -123 125 0 c150 1 179 12 204 77 32 79 1 138 -84 157
-25 6 -91 11 -148 11 l-103 0 3 -122z"/>
<path d="M2202 1787 c-34 -79 -62 -149 -62 -155 0 -9 37 -12 135 -12 97 0 135
3 135 12 0 16 -132 298 -140 298 -3 0 -34 -64 -68 -143z"/>
<path d="M4133 1785 c-35 -79 -63 -149 -63 -154 0 -12 261 -16 272 -5 7 6
-128 298 -139 301 -5 2 -36 -62 -70 -142z"/>
<path d="M1960 755 c0 -59 -3 -105 -7 -103 -138 70 -142 71 -222 66 -87 -5
-140 -29 -199 -89 -74 -75 -100 -197 -66 -305 25 -81 108 -165 184 -188 95
-28 185 -18 254 29 48 32 56 31 56 -6 0 -29 2 -30 38 -27 l37 3 0 360 0 360
-37 3 -38 3 0 -106z m-162 -115 c54 -13 105 -47 138 -91 22 -30 24 -43 24
-131 l0 -98 -40 -44 c-58 -63 -98 -79 -181 -74 -86 5 -141 40 -181 118 -66
124 -2 273 134 315 53 17 53 17 106 5z"/>
<path d="M3770 755 c0 -58 -2 -105 -4 -105 -3 0 -28 14 -56 32 -43 26 -63 32
-129 36 -69 4 -85 1 -140 -23 -112 -51 -175 -148 -175 -270 0 -86 14 -131 63
-193 95 -119 277 -147 399 -61 43 31 54 28 49 -16 -2 -16 5 -21 36 -23 l37 -3
0 365 0 366 -40 0 -40 0 0 -105z m-141 -121 c37 -11 66 -29 97 -59 l44 -44 0
-107 c0 -103 -1 -107 -30 -144 -78 -99 -229 -109 -323 -21 -131 121 -76 327
102 382 39 11 53 10 110 -7z"/>
<path d="M4010 583 c0 -169 4 -294 11 -318 20 -74 113 -142 185 -133 50 5 41
32 -17 45 -123 30 -134 54 -134 298 l0 190 93 3 c83 2 92 5 92 22 0 17 -9 20
-92 22 l-93 3 -3 73 c-3 64 -5 72 -22 72 -19 0 -20 -9 -20 -277z"/>
<path d="M329 706 c-125 -44 -203 -155 -202 -286 1 -233 269 -382 457 -255 48
32 56 31 56 -5 0 -28 3 -30 35 -30 l35 0 0 290 0 290 -35 0 c-32 0 -35 -2 -35
-30 0 -36 -8 -37 -56 -5 -20 14 -53 29 -73 35 -49 14 -138 12 -182 -4z m198
-83 c46 -21 103 -87 104 -121 1 -42 2 -134 0 -164 -1 -35 -52 -93 -104 -120
-32 -16 -54 -19 -107 -16 -81 4 -135 35 -177 101 -24 36 -28 52 -28 118 0 66
4 81 28 117 64 98 181 133 284 85z"/>
<path d="M980 699 c-58 -26 -106 -72 -136 -130 -22 -44 -23 -58 -24 -240 l-2
-194 35 -3 35 -3 4 189 c3 186 3 189 31 230 64 97 170 124 263 67 31 -20 56
-45 71 -74 22 -42 23 -55 23 -228 l0 -183 41 0 41 0 -4 198 c-3 197 -3 197
-32 250 -34 61 -85 106 -146 127 -60 21 -146 19 -200 -6z"/>
<path d="M2294 704 c-50 -18 -104 -67 -130 -120 -17 -34 -19 -66 -22 -246 l-3
-208 35 0 36 0 0 171 c0 95 5 190 11 216 15 59 63 107 123 122 44 11 46 13 46
46 0 32 -3 35 -27 34 -16 0 -47 -7 -69 -15z"/>
<path d="M2593 704 c-57 -21 -128 -86 -161 -148 -23 -44 -27 -63 -27 -136 0
-75 4 -91 30 -138 72 -133 217 -191 361 -146 76 23 161 105 187 179 22 63 22
147 0 211 -23 67 -110 154 -177 177 -60 21 -156 21 -213 1z m208 -84 c151 -77
160 -293 17 -387 -36 -25 -51 -28 -119 -28 -70 0 -81 3 -120 30 -63 44 -102
123 -97 196 12 166 174 262 319 189z"/>
<path d="M3095 697 c-3 -7 -4 -136 -3 -287 l3 -275 38 -3 37 -3 0 290 0 291
-35 0 c-20 0 -38 -6 -40 -13z"/>
<path d="M4293 698 c3 -7 42 -92 87 -188 45 -96 99 -213 121 -260 21 -47 43
-92 48 -100 15 -27 36 -20 53 18 29 63 158 342 204 441 24 51 44 95 44 98 0 2
-12 3 -27 1 -24 -3 -36 -23 -134 -238 -59 -129 -113 -236 -118 -238 -6 -2 -15
7 -20 20 -5 13 -28 63 -50 111 -23 48 -68 145 -100 215 -52 116 -60 127 -85
130 -21 3 -27 0 -23 -10z"/>
</g>
</svg>
